<svg width="1537" height="400" viewBox="0 0 1537 400" fill="none" xmlns="http://www.w3.org/2000/svg">
<path d="M468.968 190.44C468.968 191.964 469.24 193.003 469.784 193.558C470.463 193.973 471.755 194.389 473.659 194.805L481.001 196.467V200.624H450V196.467L457.546 194.805C459.586 194.389 460.878 193.904 461.421 193.35C462.101 192.796 462.441 191.756 462.441 190.232V63.6086C462.441 62.0844 462.101 61.0452 461.421 60.491C460.878 59.9367 459.586 59.4518 457.546 59.0361L450 57.3733V53.2165H502.212L544.227 145.707L581.754 53.2165H635.598V57.3733L628.052 59.0361C626.012 59.4518 624.653 59.9367 623.973 60.491C623.429 61.0452 623.157 62.0844 623.157 63.6086V190.232C623.157 191.756 623.429 192.796 623.973 193.35C624.653 193.904 626.012 194.389 628.052 194.805L635.598 196.467V200.624H569.517V196.467L576.86 194.805C578.763 194.389 579.987 193.973 580.531 193.558C581.211 193.003 581.55 191.964 581.55 190.44V70.8832L529.746 200.624H523.627L468.968 76.2871V190.44Z" fill="#1C125F"/>
<path d="M693.096 145.499C693.232 160.879 695.611 172.588 700.234 180.624C704.993 188.661 713.831 192.679 726.748 192.679C733.139 192.679 738.782 191.709 743.676 189.769C748.707 187.83 753.874 185.058 759.177 181.456L761.828 185.405C749.183 195.935 732.459 201.201 711.656 201.201C692.892 201.201 678.071 196.628 667.194 187.483C656.452 178.199 651.081 164.69 651.081 146.954C651.081 130.188 656.588 117.371 667.602 108.503C678.615 99.6348 694.048 95.2008 713.899 95.2008C725.185 95.2008 734.703 97.0021 742.453 100.605C750.203 104.207 755.914 109.057 759.585 115.154C763.392 121.112 765.296 127.763 765.296 135.107C765.296 138.848 764.956 142.312 764.276 145.499H693.096ZM712.675 100.189C705.197 100.189 700.098 103.376 697.379 109.75C694.66 116.124 693.232 126.239 693.096 140.095H727.36V124.507C727.36 116.054 726.34 109.888 724.301 106.009C722.397 102.129 718.522 100.189 712.675 100.189Z" fill="#1C125F"/>
<path d="M779.614 103.099V97.695C783.829 97.695 786.956 97.3486 788.996 96.6557C791.035 95.9629 793.075 94.7159 795.114 92.9146L831.418 59.6596H833.254V97.695H859.564V103.099H833.254V172.934C833.254 179.585 834.002 184.296 835.497 187.067C837.129 189.7 839.848 191.016 843.655 191.016C846.647 191.016 849.298 190.393 851.61 189.146C853.921 187.899 856.437 185.751 859.156 182.703L862.419 186.652C853.853 196.351 841.208 201.201 824.484 201.201C813.198 201.201 805.108 198.776 800.213 193.926C795.318 189.077 792.871 181.525 792.871 171.271V103.099H779.614Z" fill="#1C125F"/>
<path d="M951.402 200.791C947.595 200.791 944.876 200.029 943.244 198.505C941.748 196.842 941.001 192.056 941.001 188.314V187.275C931.891 196.282 918.906 200.785 902.045 200.785C893.207 200.785 886.273 198.776 881.242 194.758C876.347 190.601 873.9 184.227 873.9 175.636C873.9 167.045 876.347 160.325 881.242 155.475C886.273 150.626 893.547 147.162 903.065 145.083C912.583 143.005 925.228 141.758 941.001 141.342V126.169C941.001 118.41 939.505 112.868 936.514 109.542C933.522 106.078 928.287 104.346 920.809 104.346C914.554 104.346 908.708 105.247 903.269 107.048C897.966 108.711 892.527 111.274 886.953 114.738L884.301 110.789C890.828 106.078 898.646 102.337 907.756 99.5655C917.002 96.6557 927.336 95.2008 938.757 95.2008C954.122 95.2008 965.067 98.3185 971.594 104.554C978.12 110.651 981.383 119.518 981.383 131.158V190.814C981.383 192.339 981.655 193.378 982.199 193.932C982.879 194.486 984.239 194.971 986.278 195.387L993.417 197.05V200.791H951.402ZM924.888 187.691C930.735 187.691 936.106 185.335 941.001 180.624V146.954C933.386 147.508 927.608 148.755 923.664 150.695C919.721 152.496 917.002 155.129 915.506 158.593C914.147 162.057 913.467 166.768 913.467 172.726C913.467 177.992 914.351 181.802 916.118 184.158C918.022 186.513 920.945 187.691 924.888 187.691Z" fill="#1C125F"/>
<path d="M1010.25 194.179C1012.29 193.764 1013.59 193.279 1014.13 192.724C1014.81 192.17 1015.15 191.131 1015.15 189.607V63.6086C1015.15 62.0844 1014.81 61.0452 1014.13 60.491C1013.59 59.9367 1012.29 59.4518 1010.25 59.0361L1002.71 57.3733V53.2165H1065.12C1093.67 53.2165 1115.43 58.6897 1130.38 69.6361C1145.34 80.5825 1152.82 99.9829 1152.82 126.587C1152.82 153.191 1145.34 172.633 1130.38 183.579C1115.43 194.526 1093.67 199.999 1065.12 199.999H1002.71V195.842L1010.25 194.179ZM1056.76 193.764H1065.12C1076.4 193.764 1085.11 191.755 1091.22 187.736C1097.34 183.579 1101.63 176.79 1104.07 167.368C1106.52 157.945 1107.74 143.907 1107.74 126.587C1107.74 109.267 1106.52 95.2701 1104.07 85.8479C1101.63 76.4257 1097.34 69.7054 1091.22 65.6871C1085.11 61.5302 1076.4 59.4518 1065.12 59.4518H1056.76V193.764Z" fill="#FF8100"/>
<path d="M1249.97 195.759L1258.74 194.927C1260.65 194.65 1261.6 193.888 1261.6 192.641C1261.6 191.948 1261.4 191.117 1260.99 190.147L1247.53 159.802H1200.21L1187.97 190.147C1187.56 191.117 1187.36 191.948 1187.36 192.641C1187.36 193.888 1188.31 194.65 1190.22 194.927L1198.99 195.759V199.916H1167.98V195.759L1175.53 194.927C1177.16 194.789 1178.32 194.373 1179 193.68C1179.68 192.988 1180.43 191.74 1181.24 189.939L1237.74 52.8008H1244.26L1304.02 189.939C1304.84 191.74 1305.59 192.988 1306.26 193.68C1306.94 194.373 1308.1 194.789 1309.73 194.927L1317.28 195.759V199.916H1249.97V195.759ZM1244.87 153.567L1222.85 103.892L1202.66 153.567H1244.87Z" fill="#FF8100"/>
<path d="M1462 97.0714C1462 108.295 1459.35 117.094 1454.05 123.467C1448.88 129.703 1440.79 134.206 1429.78 136.977C1418.76 139.61 1404.01 140.926 1385.52 140.926H1380.21V189.524C1380.21 191.048 1380.49 192.087 1381.03 192.642C1381.71 193.196 1383.07 193.681 1385.11 194.097L1393.88 195.967V200.124H1326.17V195.967L1333.71 194.304C1335.75 193.889 1337.04 193.404 1337.59 192.85C1338.27 192.295 1338.61 191.256 1338.61 189.732V63.6086C1338.61 62.0844 1338.27 61.0452 1337.59 60.491C1337.04 59.9367 1335.75 59.4518 1333.71 59.0361L1326.17 57.3733V53.2165H1385.52C1404.01 53.2165 1418.76 54.6021 1429.78 57.3733C1440.79 60.006 1448.88 64.5093 1454.05 70.8832C1459.35 77.1185 1462 85.8479 1462 97.0714ZM1380.21 134.691H1387.35C1395.37 134.691 1401.63 133.444 1406.12 130.95C1410.74 128.456 1414.07 124.507 1416.11 119.103C1418.15 113.699 1419.17 106.355 1419.17 97.0714C1419.17 87.7878 1418.15 80.444 1416.11 75.04C1414.07 69.6361 1410.74 65.6871 1406.12 63.1929C1401.63 60.6988 1395.37 59.4518 1387.35 59.4518H1380.21V134.691Z" fill="#FF8100"/>
<path d="M360.889 151.098C360.889 167.073 348.126 180.036 332.258 180.179L263.676 180.163L263.254 199.865H334.668C354.55 199.865 370.668 182.438 370.668 160.941C370.668 139.443 353.661 121.926 333.779 121.926C333.309 121.927 332.297 121.927 332 121.927C347.955 121.927 360.889 135.037 360.889 151.098Z" fill="#1C125F"/>
<path d="M336.667 219.552H263.676L263.254 199.865H334.668C354.55 199.865 370.668 182.438 370.668 160.941C370.668 139.443 353.661 121.926 333.779 121.926C333.26 121.927 332.178 121.928 332 121.927C339.111 121.569 343.888 122.546 344.943 122.923C354.339 125.178 362.78 131.165 368.84 139.869C374.9 148.573 378.205 159.46 378.198 170.69C378.196 183.608 373.812 195.996 366.009 205.13C358.206 214.264 348 219.552 336.667 219.552Z" fill="#282974"/>
<path d="M342.444 219.091C352.159 217.198 361.952 210.924 368.32 202.127C374.687 193.331 378.183 182.175 378.184 170.644C378.182 157.728 373.8 145.341 366 136.206C358.201 127.072 347.623 121.937 336.591 121.93L266.666 122.017V148.862L231.109 94.278H336.444C353.105 94.278 405.566 116.095 383.777 193.378C373.369 207.298 358.107 216.644 342.444 219.091Z" fill="#FF9200"/>
<path d="M400 143.002C399.999 161.503 394.186 179.459 383.777 193.378C405.566 116.095 353.105 94.278 336.444 94.278H231.109L266.666 38.7988V66.5375L334.791 66.6642C352.084 66.6642 368.669 74.7067 380.898 89.0226C393.127 103.339 399.998 122.755 400 143.002Z" fill="#FF8100"/>
<path d="M133.333 242.317L168.941 296.967L168.889 95.1167C168.889 91.4299 171.832 88.441 175.463 88.441H194.628L172.667 52.8945H154.667H143.993C137.896 52.8945 132.953 57.8373 132.953 63.9345V67.5339L133.333 242.317Z" fill="#1C125F"/>
<path d="M151.111 269.61L133.333 242.317L132.953 67.5339V65.1612V63.9345C132.953 57.8373 137.896 52.8945 143.993 52.8945H145.22H154.667H172.667L181.347 70.6923L157.685 70.6633C154.054 70.6633 151.111 73.6522 151.111 77.3389V269.61Z" fill="#282974"/>
<path d="M151.746 52.8945H189.746C193.068 52.8947 196.425 54.1218 199.312 56.0343C202.199 57.9468 204.002 60.5749 206.303 64.0238C208.517 67.3422 264.029 154.686 264.029 154.686C265.742 158.055 266.652 161.893 266.666 165.807V347.338L241.235 347.335C238.549 347.335 235.974 346.094 234.076 343.886C232.177 341.678 231.11 338.683 231.11 335.56V171.872C231.112 170.085 230.681 168.334 229.866 166.819C229.866 166.819 166.144 63.1269 165.194 61.6444C164.244 60.1619 163.24 58.8203 161.381 57.2025C160.056 56.0488 158.164 55.0269 156.733 54.473C153.731 53.3114 151.746 52.8945 151.746 52.8945Z" fill="#FF8100"/>
<path d="M151.746 52.894L171.967 52.8906C175.29 52.8908 178.646 54.1179 181.533 56.0304C184.42 57.9429 186.242 60.559 188.525 64.0199C204.197 87.7814 246.25 154.682 246.25 154.682C247.963 158.051 248.873 161.889 248.887 165.803V347.334L241.235 347.334C238.549 347.334 235.974 346.094 234.076 343.886C232.177 341.677 231.11 338.682 231.11 335.56V171.872C231.112 170.085 230.681 168.333 229.866 166.818C229.866 166.818 166.144 63.1264 165.194 61.6439C164.244 60.1614 163.24 58.8199 161.381 57.202C160.056 56.0483 158.164 55.0264 156.733 54.4725C153.731 53.3109 151.746 52.894 151.746 52.894Z" fill="#FF9200"/>
<path d="M57.5577 180.643C47.8426 182.535 38.0495 188.81 31.682 197.607C25.3144 206.403 21.819 217.56 21.8177 229.091C21.8196 242.007 26.2019 254.395 34.0013 263.529C41.8008 272.664 52.3791 277.799 63.411 277.806L133.335 277.719V250.873L168.891 305.459L63.5577 305.459C46.897 305.459 -5.56413 283.641 16.2245 206.356C26.633 192.436 41.895 183.09 57.5577 180.643Z" fill="#FF9200"/>
<path d="M0.00175145 256.733C0.00259238 238.232 5.81597 220.276 16.2245 206.356C-5.56413 283.641 46.897 305.459 63.5577 305.459L168.891 305.459L133.335 360.939V333.2L65.211 333.073C47.9177 333.073 31.3325 325.031 19.1036 310.714C6.87469 296.398 0.00360963 276.981 0.00175145 256.733Z" fill="#FF8100"/>
<path d="M67.6129 219.554C51.7447 219.697 38.982 232.66 38.982 248.635C38.982 264.697 51.1604 277.807 67.1153 277.807C66.8188 277.807 65.8061 277.808 65.3369 277.808C45.4547 277.808 29.337 260.291 29.337 238.793C29.337 217.295 45.4547 199.867 65.3369 199.867H132.892V199.866H231.114V219.553H136.329L136.329 219.57L67.6129 219.554Z" fill="#282974"/>
<path d="M63.3357 180.18C52.0024 180.18 41.7964 185.468 33.9937 194.602C26.191 203.736 21.8065 216.125 21.8047 229.044C21.7972 240.273 25.1029 251.161 31.1626 259.865C37.2223 268.57 45.664 274.556 55.0597 276.812C56.1146 277.188 60.0023 278.165 67.1134 277.807C66.9356 277.807 65.8537 277.808 65.335 277.808C45.4528 277.808 29.335 260.291 29.335 238.793C29.335 217.295 45.4528 199.867 65.335 199.867H136.749L136.749 199.866H231.113V180.18H63.3357Z" fill="#1C125F"/>
<path d="M1512.65 104.8C1508.18 104.8 1504.09 103.729 1500.38 101.586C1496.73 99.3806 1493.81 96.4501 1491.61 92.7949C1489.47 89.0767 1488.4 85.0118 1488.4 80.6004C1488.4 76.1259 1489.47 72.0611 1491.61 68.4059C1493.81 64.7507 1496.73 61.8517 1500.38 59.709C1504.09 57.5033 1508.18 56.4004 1512.65 56.4004C1515.98 56.4004 1519.09 57.0306 1521.99 58.291C1524.94 59.5514 1527.52 61.2845 1529.72 63.4902C1531.92 65.696 1533.65 68.2798 1534.91 71.2418C1536.17 74.1408 1536.8 77.2603 1536.8 80.6004C1536.8 85.0118 1535.7 89.0767 1533.5 92.7949C1531.36 96.4501 1528.46 99.3806 1524.82 101.586C1521.17 103.729 1517.11 104.8 1512.65 104.8ZM1512.65 99.3176C1516.11 99.3176 1519.22 98.4983 1521.99 96.8598C1524.82 95.2212 1527.08 92.984 1528.78 90.148C1530.48 87.3121 1531.33 84.1296 1531.33 80.6004C1531.33 77.1342 1530.48 73.9832 1528.78 71.1473C1527.08 68.3113 1524.82 66.0741 1521.99 64.4355C1519.22 62.734 1516.11 61.8832 1512.65 61.8832C1509.12 61.8832 1505.95 62.734 1503.12 64.4355C1500.29 66.0741 1498.02 68.3113 1496.32 71.1473C1494.69 73.9832 1493.87 77.1342 1493.87 80.6004C1493.87 84.0665 1494.69 87.2176 1496.32 90.0535C1498.02 92.8895 1500.29 95.1582 1503.12 96.8598C1505.95 98.4983 1509.12 99.3176 1512.65 99.3176ZM1503.4 93.2676V67.7441H1513.68C1516.33 67.7441 1518.5 68.4689 1520.19 69.9184C1521.89 71.3048 1522.74 73.3215 1522.74 75.9684C1522.74 77.6699 1522.36 79.1509 1521.61 80.4113C1520.92 81.6087 1519.85 82.554 1518.4 83.2473L1524.34 93.2676H1518.21L1513.12 84.2871H1508.87V93.2676H1503.4ZM1508.87 79.3715H1513.68C1514.75 79.3715 1515.6 79.0564 1516.23 78.4262C1516.86 77.7329 1517.17 76.9137 1517.17 75.9684C1517.17 75.023 1516.86 74.2353 1516.23 73.6051C1515.6 72.9749 1514.75 72.6598 1513.68 72.6598H1508.87V79.3715Z" fill="#4F4F4F"/>
<path d="M498.272 347.735C491.531 347.735 485.259 346.498 479.456 344.023C473.739 341.549 468.747 338.135 464.48 333.783C460.299 329.346 457.013 324.141 454.624 318.167C452.235 312.194 451.04 305.623 451.04 298.455C451.04 291.373 452.192 284.845 454.496 278.871C456.885 272.813 460.213 267.607 464.48 263.255C468.747 258.818 473.739 255.405 479.456 253.015C485.173 250.541 491.445 249.303 498.272 249.303C505.013 249.303 511.029 250.455 516.32 252.759C521.696 255.063 526.219 258.093 529.888 261.847C533.557 265.517 536.203 269.527 537.824 273.879L524.256 280.279C522.208 275.159 518.923 271.021 514.4 267.863C509.963 264.621 504.587 262.999 498.272 262.999C491.957 262.999 486.368 264.493 481.504 267.479C476.64 270.466 472.843 274.605 470.112 279.895C467.467 285.186 466.144 291.373 466.144 298.455C466.144 305.538 467.467 311.767 470.112 317.143C472.843 322.434 476.64 326.573 481.504 329.559C486.368 332.461 491.957 333.911 498.272 333.911C504.587 333.911 509.963 332.333 514.4 329.175C518.923 326.018 522.208 321.879 524.256 316.759L537.824 323.159C536.203 327.426 533.557 331.437 529.888 335.191C526.219 338.946 521.696 341.975 516.32 344.279C511.029 346.583 505.013 347.735 498.272 347.735ZM563.468 346.199V276.951H577.292V290.903L576.012 288.855C577.548 284.333 580.023 281.09 583.436 279.127C586.849 277.079 590.945 276.055 595.724 276.055H599.948V289.239H593.932C589.153 289.239 585.271 290.733 582.284 293.719C579.383 296.621 577.932 300.802 577.932 306.263V346.199H563.468ZM654.771 347.735C648.115 347.735 642.014 346.157 636.467 342.999C631.006 339.842 626.654 335.533 623.411 330.071C620.168 324.61 618.547 318.423 618.547 311.511C618.547 304.514 620.168 298.327 623.411 292.951C626.654 287.49 631.006 283.223 636.467 280.151C641.928 276.994 648.03 275.415 654.771 275.415C661.598 275.415 667.699 276.994 673.075 280.151C678.536 283.223 682.846 287.49 686.003 292.951C689.246 298.327 690.867 304.514 690.867 311.511C690.867 318.509 689.246 324.738 686.003 330.199C682.76 335.661 678.408 339.97 672.947 343.127C667.486 346.199 661.427 347.735 654.771 347.735ZM654.771 334.295C658.867 334.295 662.494 333.314 665.651 331.351C668.808 329.389 671.283 326.701 673.075 323.287C674.952 319.789 675.891 315.863 675.891 311.511C675.891 307.159 674.952 303.277 673.075 299.863C671.283 296.45 668.808 293.762 665.651 291.799C662.494 289.837 658.867 288.855 654.771 288.855C650.76 288.855 647.134 289.837 643.891 291.799C640.734 293.762 638.216 296.45 636.339 299.863C634.547 303.277 633.651 307.159 633.651 311.511C633.651 315.863 634.547 319.789 636.339 323.287C638.216 326.701 640.734 329.389 643.891 331.351C647.134 333.314 650.76 334.295 654.771 334.295ZM732.026 346.199L708.218 276.951H723.578L741.754 332.119H736.378L754.938 276.951H768.122L786.554 332.119H781.178L799.482 276.951H814.842L790.906 346.199H777.85L759.162 289.751H763.898L745.21 346.199H732.026ZM867.028 347.735C860.372 347.735 854.399 346.157 849.108 342.999C843.903 339.757 839.764 335.405 836.692 329.943C833.705 324.482 832.212 318.338 832.212 311.511C832.212 304.685 833.748 298.541 836.82 293.079C839.892 287.618 844.031 283.309 849.236 280.151C854.441 276.994 860.329 275.415 866.9 275.415C872.447 275.415 877.353 276.525 881.62 278.743C885.887 280.962 889.257 284.034 891.732 287.959L889.556 291.287V249.303H903.892V346.199H890.196V332.119L891.86 334.807C889.471 338.989 886.057 342.189 881.62 344.407C877.183 346.626 872.319 347.735 867.028 347.735ZM868.436 334.295C872.447 334.295 876.031 333.314 879.188 331.351C882.431 329.389 884.948 326.701 886.74 323.287C888.617 319.789 889.556 315.863 889.556 311.511C889.556 307.159 888.617 303.277 886.74 299.863C884.948 296.45 882.431 293.762 879.188 291.799C876.031 289.837 872.447 288.855 868.436 288.855C864.425 288.855 860.799 289.837 857.556 291.799C854.313 293.762 851.796 296.45 850.004 299.863C848.212 303.277 847.316 307.159 847.316 311.511C847.316 315.863 848.212 319.789 850.004 323.287C851.796 326.701 854.271 329.389 857.428 331.351C860.671 333.314 864.34 334.295 868.436 334.295ZM940.106 346.199V290.007H927.306V276.951H940.106V273.367C940.106 268.162 941.173 263.81 943.306 260.311C945.439 256.727 948.383 253.997 952.138 252.119C955.978 250.242 960.373 249.303 965.322 249.303C966.261 249.303 967.327 249.389 968.522 249.559C969.717 249.645 970.698 249.773 971.466 249.943V262.487C970.783 262.317 970.015 262.231 969.162 262.231C968.309 262.146 967.626 262.103 967.114 262.103C963.274 262.103 960.202 262.999 957.898 264.791C955.594 266.498 954.442 269.357 954.442 273.367V276.951H970.314V290.007H954.442V346.199H940.106ZM1020.02 347.735C1014.82 347.735 1010.25 346.583 1006.33 344.279C1002.4 341.89 999.329 338.605 997.11 334.423C994.977 330.157 993.91 325.25 993.91 319.703V276.951H1008.37V318.423C1008.37 321.581 1009.01 324.354 1010.29 326.743C1011.57 329.133 1013.37 331.01 1015.67 332.375C1017.97 333.655 1020.62 334.295 1023.61 334.295C1026.68 334.295 1029.37 333.613 1031.67 332.247C1033.97 330.882 1035.77 328.962 1037.05 326.487C1038.41 324.013 1039.09 321.111 1039.09 317.783V276.951H1053.43V346.199H1039.73V332.631L1041.27 334.423C1039.65 338.69 1036.96 341.975 1033.21 344.279C1029.45 346.583 1025.06 347.735 1020.02 347.735ZM1081.84 346.199V276.951H1095.66V290.519L1094 288.727C1095.7 284.375 1098.44 281.09 1102.19 278.871C1105.94 276.567 1110.3 275.415 1115.25 275.415C1120.37 275.415 1124.89 276.525 1128.81 278.743C1132.74 280.962 1135.81 284.034 1138.03 287.959C1140.25 291.885 1141.36 296.407 1141.36 301.527V346.199H1127.02V305.367C1127.02 301.869 1126.38 298.925 1125.1 296.535C1123.82 294.061 1121.99 292.183 1119.6 290.903C1117.29 289.538 1114.65 288.855 1111.66 288.855C1108.68 288.855 1105.99 289.538 1103.6 290.903C1101.29 292.183 1099.5 294.061 1098.22 296.535C1096.94 299.01 1096.3 301.954 1096.3 305.367V346.199H1081.84ZM1200.36 347.735C1193.7 347.735 1187.73 346.157 1182.44 342.999C1177.23 339.757 1173.09 335.405 1170.02 329.943C1167.04 324.482 1165.54 318.338 1165.54 311.511C1165.54 304.685 1167.08 298.541 1170.15 293.079C1173.22 287.618 1177.36 283.309 1182.57 280.151C1187.77 276.994 1193.66 275.415 1200.23 275.415C1205.78 275.415 1210.68 276.525 1214.95 278.743C1219.22 280.962 1222.59 284.034 1225.06 287.959L1222.89 291.287V249.303H1237.22V346.199H1223.53V332.119L1225.19 334.807C1222.8 338.989 1219.39 342.189 1214.95 344.407C1210.51 346.626 1205.65 347.735 1200.36 347.735ZM1201.77 334.295C1205.78 334.295 1209.36 333.314 1212.52 331.351C1215.76 329.389 1218.28 326.701 1220.07 323.287C1221.95 319.789 1222.89 315.863 1222.89 311.511C1222.89 307.159 1221.95 303.277 1220.07 299.863C1218.28 296.45 1215.76 293.762 1212.52 291.799C1209.36 289.837 1205.78 288.855 1201.77 288.855C1197.76 288.855 1194.13 289.837 1190.89 291.799C1187.64 293.762 1185.13 296.45 1183.33 299.863C1181.54 303.277 1180.65 307.159 1180.65 311.511C1180.65 315.863 1181.54 319.789 1183.33 323.287C1185.13 326.701 1187.6 329.389 1190.76 331.351C1194 333.314 1197.67 334.295 1201.77 334.295ZM1265.63 346.199V276.951H1280.09V346.199H1265.63ZM1265.63 267.479V250.839H1280.09V267.479H1265.63ZM1308.52 346.199V276.951H1322.35V290.519L1320.68 288.727C1322.39 284.375 1325.12 281.09 1328.88 278.871C1332.63 276.567 1336.98 275.415 1341.93 275.415C1347.05 275.415 1351.57 276.525 1355.5 278.743C1359.42 280.962 1362.5 284.034 1364.72 287.959C1366.93 291.885 1368.04 296.407 1368.04 301.527V346.199H1353.71V305.367C1353.71 301.869 1353.07 298.925 1351.79 296.535C1350.51 294.061 1348.67 292.183 1346.28 290.903C1343.98 289.538 1341.33 288.855 1338.35 288.855C1335.36 288.855 1332.67 289.538 1330.28 290.903C1327.98 292.183 1326.19 294.061 1324.91 296.535C1323.63 299.01 1322.99 301.954 1322.99 305.367V346.199H1308.52ZM1428.45 374.359C1423.42 374.359 1418.77 373.549 1414.5 371.927C1410.23 370.306 1406.56 368.045 1403.49 365.143C1400.42 362.327 1398.12 358.999 1396.58 355.159L1409.89 349.655C1411.09 352.898 1413.26 355.586 1416.42 357.719C1419.66 359.853 1423.63 360.919 1428.32 360.919C1431.99 360.919 1435.28 360.194 1438.18 358.743C1441.08 357.378 1443.38 355.33 1445.09 352.599C1446.8 349.954 1447.65 346.754 1447.65 342.999V327.383L1450.21 330.327C1447.82 334.765 1444.49 338.135 1440.23 340.439C1436.05 342.743 1431.31 343.895 1426.02 343.895C1419.62 343.895 1413.86 342.402 1408.74 339.415C1403.62 336.429 1399.57 332.333 1396.58 327.127C1393.68 321.922 1392.23 316.077 1392.23 309.591C1392.23 303.021 1393.68 297.175 1396.58 292.055C1399.57 286.935 1403.58 282.882 1408.61 279.895C1413.65 276.909 1419.41 275.415 1425.89 275.415C1431.18 275.415 1435.88 276.567 1439.97 278.871C1444.15 281.09 1447.57 284.333 1450.21 288.599L1448.29 292.183V276.951H1461.99V342.999C1461.99 348.973 1460.54 354.306 1457.64 358.999C1454.82 363.778 1450.89 367.533 1445.86 370.263C1440.82 372.994 1435.02 374.359 1428.45 374.359ZM1427.68 330.455C1431.52 330.455 1434.94 329.559 1437.92 327.767C1440.91 325.89 1443.26 323.415 1444.96 320.343C1446.76 317.186 1447.65 313.645 1447.65 309.719C1447.65 305.794 1446.76 302.253 1444.96 299.095C1443.17 295.938 1440.78 293.463 1437.8 291.671C1434.81 289.794 1431.44 288.855 1427.68 288.855C1423.76 288.855 1420.26 289.794 1417.19 291.671C1414.12 293.463 1411.68 295.938 1409.89 299.095C1408.18 302.167 1407.33 305.709 1407.33 309.719C1407.33 313.559 1408.18 317.058 1409.89 320.215C1411.68 323.373 1414.12 325.89 1417.19 327.767C1420.26 329.559 1423.76 330.455 1427.68 330.455Z" fill="#008000"/>
</svg>
